<svg width="50" height="50" viewBox="0 0 50 50" fill="none" xmlns="http://www.w3.org/2000/svg">
<mask id="mask0_339_6" style="mask-type:alpha" maskUnits="userSpaceOnUse" x="0" y="0" width="50" height="50">
<path fill-rule="evenodd" clip-rule="evenodd" d="M33.3334 18.75C33.3334 23.3523 29.6024 27.0833 25.0001 27.0833C20.3977 27.0833 16.6667 23.3523 16.6667 18.75C16.6667 14.1476 20.3977 10.4166 25.0001 10.4166C29.6024 10.4166 33.3334 14.1476 33.3334 18.75ZM29.1667 18.75C29.1667 21.0512 27.3013 22.9166 25.0001 22.9166C22.6988 22.9166 20.8334 21.0512 20.8334 18.75C20.8334 16.4488 22.6988 14.5833 25.0001 14.5833C27.3013 14.5833 29.1667 16.4488 29.1667 18.75Z" fill="black"/>
<path fill-rule="evenodd" clip-rule="evenodd" d="M24.9999 2.08337C12.3434 2.08337 2.08325 12.3435 2.08325 25C2.08325 37.6565 12.3434 47.9167 24.9999 47.9167C37.6564 47.9167 47.9166 37.6565 47.9166 25C47.9166 12.3435 37.6564 2.08337 24.9999 2.08337ZM6.24992 25C6.24992 29.3546 7.7344 33.3625 10.2249 36.5452C13.6509 32.0602 19.0546 29.1667 25.1343 29.1667C31.1349 29.1667 36.4774 31.9857 39.9093 36.3715C42.3187 33.2173 43.7499 29.2759 43.7499 25C43.7499 14.6447 35.3553 6.25004 24.9999 6.25004C14.6446 6.25004 6.24992 14.6447 6.24992 25ZM24.9999 43.75C20.5203 43.75 16.4075 42.179 13.1826 39.558C15.8198 35.7942 20.1896 33.3334 25.1343 33.3334C30.0174 33.3334 34.3401 35.7336 36.987 39.4186C33.7372 42.1232 29.5585 43.75 24.9999 43.75Z" fill="black"/>
</mask>
<g mask="url(#mask0_339_6)">
<rect x="-12" y="-6" width="70" height="67" fill="#CC3939"/>
</g>
</svg>
